<?xml version="1.0" encoding="UTF-8" standalone="no"?>
<!-- Created with Inkscape (http://www.inkscape.org/) -->

<svg
   width="210mm"
   height="297mm"
   viewBox="0 0 210 297"
   version="1.1"
   id="svg1"
   xml:space="preserve"
   inkscape:version="1.4 (e7c3feb1, 2024-10-09)"
   sodipodi:docname="github-to-azure.svg"
   xmlns:inkscape="http://www.inkscape.org/namespaces/inkscape"
   xmlns:sodipodi="http://sodipodi.sourceforge.net/DTD/sodipodi-0.dtd"
   xmlns="http://www.w3.org/2000/svg"
   xmlns:svg="http://www.w3.org/2000/svg"><sodipodi:namedview
     id="namedview1"
     pagecolor="#ffffff"
     bordercolor="#000000"
     borderopacity="0.25"
     inkscape:showpageshadow="2"
     inkscape:pageopacity="0.0"
     inkscape:pagecheckerboard="0"
     inkscape:deskcolor="#d1d1d1"
     inkscape:document-units="mm"
     inkscape:zoom="0.44335858"
     inkscape:cx="307.8772"
     inkscape:cy="575.15522"
     inkscape:window-width="1608"
     inkscape:window-height="973"
     inkscape:window-x="61"
     inkscape:window-y="37"
     inkscape:window-maximized="0"
     inkscape:current-layer="layer1" /><defs
     id="defs1"><linearGradient
       id="azure-original-a"
       x1="60.919"
       y1="9.602"
       x2="18.667"
       y2="134.423"
       gradientUnits="userSpaceOnUse"><stop
         stop-color="#114A8B"
         id="stop1" /><stop
         offset="1"
         stop-color="#0669BC"
         id="stop2" /></linearGradient><linearGradient
       id="azure-original-b"
       x1="74.117"
       y1="67.772"
       x2="64.344"
       y2="71.076"
       gradientUnits="userSpaceOnUse"><stop
         stop-opacity=".3"
         id="stop3" /><stop
         offset=".071"
         stop-opacity=".2"
         id="stop4" /><stop
         offset=".321"
         stop-opacity=".1"
         id="stop5" /><stop
         offset=".623"
         stop-opacity=".05"
         id="stop6" /><stop
         offset="1"
         stop-opacity="0"
         id="stop7" /></linearGradient><linearGradient
       id="azure-original-c"
       x1="68.742"
       y1="5.961"
       x2="115.122"
       y2="129.525"
       gradientUnits="userSpaceOnUse"><stop
         stop-color="#3CCBF4"
         id="stop8" /><stop
         offset="1"
         stop-color="#2892DF"
         id="stop9" /></linearGradient><linearGradient
       id="azure-original-a-2"
       x1="60.919"
       y1="9.602"
       x2="18.667"
       y2="134.423"
       gradientUnits="userSpaceOnUse"><stop
         stop-color="#114A8B"
         id="stop1-3" /><stop
         offset="1"
         stop-color="#0669BC"
         id="stop2-9" /></linearGradient><linearGradient
       id="azure-original-b-9"
       x1="74.117"
       y1="67.772"
       x2="64.344"
       y2="71.076"
       gradientUnits="userSpaceOnUse"><stop
         stop-opacity=".3"
         id="stop3-7" /><stop
         offset=".071"
         stop-opacity=".2"
         id="stop4-0" /><stop
         offset=".321"
         stop-opacity=".1"
         id="stop5-3" /><stop
         offset=".623"
         stop-opacity=".05"
         id="stop6-9" /><stop
         offset="1"
         stop-opacity="0"
         id="stop7-8" /></linearGradient><linearGradient
       id="azure-original-c-6"
       x1="68.742"
       y1="5.961"
       x2="115.122"
       y2="129.525"
       gradientUnits="userSpaceOnUse"><stop
         stop-color="#3CCBF4"
         id="stop8-5" /><stop
         offset="1"
         stop-color="#2892DF"
         id="stop9-7" /></linearGradient></defs><g
     inkscape:label="Layer 1"
     inkscape:groupmode="layer"
     id="layer1"><g
       id="g1"
       transform="matrix(0.48837228,0,0,0.48837228,109.9129,39.122025)"><path
         fill="#2088ff"
         d="M 26.666,0 C 11.97,0 0,11.97 0,26.666 c 0,12.87 9.181,23.651 21.334,26.13 v 37.87 c 0,11.77 9.68,21.334 21.332,21.334 h 0.195 c 1.302,9.023 9.1,16 18.473,16 C 71.612,128 80,119.612 80,109.334 80,99.056 71.612,90.666 61.334,90.666 c -9.372,0 -17.17,6.977 -18.473,16 h -0.195 c -8.737,0 -16,-7.152 -16,-16 V 63.779 a 18.514,18.514 0 0 0 13.24,5.555 h 2.955 c 1.303,9.023 9.1,16 18.473,16 9.372,0 17.169,-6.977 18.47,-16 h 11.057 c 1.303,9.023 9.1,16 18.473,16 C 119.612,85.334 128,76.944 128,66.666 128,56.388 119.612,48 109.334,48 99.961,48 92.163,54.977 90.861,64 H 79.805 C 78.504,54.977 70.707,48 61.334,48 51.961,48 44.163,54.977 42.861,64 H 39.906 C 33.473,64 28.113,59.411 26.918,53.328 41.498,53.192 53.334,41.278 53.334,26.666 53.334,11.97 41.362,0 26.666,0 Z m 0,5.334 A 21.292,21.292 0 0 1 48,26.666 21.294,21.294 0 0 1 26.666,48 21.292,21.292 0 0 1 5.334,26.666 21.29,21.29 0 0 1 26.666,5.334 Z m -5.215,7.541 C 18.67,12.889 16,15.123 16,18.166 v 17.043 c 0,4.043 4.709,6.663 8.145,4.533 l 13.634,-8.455 c 3.257,-2.02 3.274,-7.002 0.032,-9.045 l -13.635,-8.59 a 5.024,5.024 0 0 0 -2.725,-0.777 z m -0.117,5.291 13.635,8.588 -13.635,8.455 z m 40,35.168 A 13.29,13.29 0 0 1 74.666,66.666 13.293,13.293 0 0 1 61.334,80 13.294,13.294 0 0 1 48,66.666 13.293,13.293 0 0 1 61.334,53.334 Z m 48,0 A 13.29,13.29 0 0 1 122.666,66.666 13.293,13.293 0 0 1 109.334,80 13.294,13.294 0 0 1 96,66.666 13.293,13.293 0 0 1 109.334,53.334 Z m -42.568,6.951 a 2.667,2.667 0 0 0 -1.887,0.78 l -6.3,6.294 -2.093,-2.084 a 2.667,2.667 0 0 0 -3.771,0.006 2.667,2.667 0 0 0 0.008,3.772 l 3.974,3.96 a 2.667,2.667 0 0 0 3.766,-0.001 l 8.185,-8.174 a 2.667,2.667 0 0 0 0.002,-3.772 2.667,2.667 0 0 0 -1.884,-0.78 z m 48,0 a 2.667,2.667 0 0 0 -1.887,0.78 l -6.3,6.294 -2.093,-2.084 a 2.667,2.667 0 0 0 -3.771,0.006 2.667,2.667 0 0 0 0.008,3.772 l 3.974,3.96 a 2.667,2.667 0 0 0 3.766,-0.001 l 8.185,-8.174 a 2.667,2.667 0 0 0 0.002,-3.772 2.667,2.667 0 0 0 -1.884,-0.78 z M 61.334,96 A 13.293,13.293 0 0 1 74.666,109.334 13.29,13.29 0 0 1 61.334,122.666 13.293,13.293 0 0 1 48,109.334 13.294,13.294 0 0 1 61.334,96 Z M 56,105.334 c -2.193,0 -4,1.807 -4,4 0,2.195 1.808,4 4,4 2.192,0 4,-1.805 4,-4 0,-2.193 -1.807,-4 -4,-4 z m 10.666,0 c -2.193,0 -4,1.807 -4,4 0,2.195 1.808,4 4,4 2.192,0 4,-1.805 4,-4 0,-2.193 -1.807,-4 -4,-4 z M 56,108 c 0.75,0 1.334,0.585 1.334,1.334 0,0.753 -0.583,1.332 -1.334,1.332 -0.75,0 -1.334,-0.58 -1.334,-1.332 0,-0.75 0.585,-1.334 1.334,-1.334 z m 10.666,0 c 0.75,0 1.334,0.585 1.334,1.334 0,0.753 -0.583,1.332 -1.334,1.332 -0.75,0 -1.332,-0.58 -1.332,-1.332 0,-0.75 0.583,-1.334 1.332,-1.334 z"
         id="path1" /><path
         fill="#79b8ff"
         d="m 109.334,90.666 c -9.383,0 -17.188,6.993 -18.477,16.031 a 2.667,2.667 0 0 0 -0.265,-0.011 l -2.7,0.09 a 2.667,2.667 0 0 0 -2.578,2.751 2.667,2.667 0 0 0 2.752,2.578 l 2.7,-0.087 a 2.667,2.667 0 0 0 0.097,-0.006 C 92.17,121.029 99.965,128 109.334,128 119.612,128 128,119.612 128,109.334 128,99.056 119.612,90.666 109.334,90.666 Z m 0,5.334 a 13.293,13.293 0 0 1 13.332,13.334 13.29,13.29 0 0 1 -13.332,13.332 A 13.293,13.293 0 0 1 96,109.334 13.294,13.294 0 0 1 109.334,96 Z"
         id="path2" /></g><g
       fill="#fafbfc"
       id="g2"
       transform="matrix(0.50669694,0,0,0.50669694,26.683914,34.902696)"><path
         fill-rule="evenodd"
         clip-rule="evenodd"
         d="m 64,5.103 c -33.347,0 -60.388,27.035 -60.388,60.388 0,26.682 17.303,49.317 41.297,57.303 3.017,0.56 4.125,-1.31 4.125,-2.905 0,-1.44 -0.056,-6.197 -0.082,-11.243 -16.8,3.653 -20.345,-7.125 -20.345,-7.125 -2.747,-6.98 -6.705,-8.836 -6.705,-8.836 -5.48,-3.748 0.413,-3.67 0.413,-3.67 6.063,0.425 9.257,6.223 9.257,6.223 5.386,9.23 14.127,6.562 17.573,5.02 0.542,-3.903 2.107,-6.568 3.834,-8.076 -13.413,-1.525 -27.514,-6.704 -27.514,-29.843 0,-6.593 2.36,-11.98 6.223,-16.21 -0.628,-1.52 -2.695,-7.662 0.584,-15.98 0,0 5.07,-1.623 16.61,6.19 C 53.7,35 58.867,34.327 64,34.304 c 5.13,0.023 10.3,0.694 15.127,2.033 11.526,-7.813 16.59,-6.19 16.59,-6.19 3.287,8.317 1.22,14.46 0.593,15.98 3.872,4.23 6.215,9.617 6.215,16.21 0,23.194 -14.127,28.3 -27.574,29.796 2.167,1.874 4.097,5.55 4.097,11.183 0,8.08 -0.07,14.583 -0.07,16.572 0,1.607 1.088,3.49 4.148,2.897 23.98,-7.994 41.263,-30.622 41.263,-57.294 C 124.388,32.14 97.35,5.104 64,5.104 Z"
         id="path1-5" /><path
         d="m 26.484,91.806 c -0.133,0.3 -0.605,0.39 -1.035,0.185 -0.44,-0.196 -0.685,-0.605 -0.543,-0.906 0.13,-0.31 0.603,-0.395 1.04,-0.188 0.44,0.197 0.69,0.61 0.537,0.91 z m 2.446,2.729 c -0.287,0.267 -0.85,0.143 -1.232,-0.28 -0.396,-0.42 -0.47,-0.983 -0.177,-1.254 0.298,-0.266 0.844,-0.14 1.24,0.28 0.394,0.426 0.472,0.984 0.17,1.255 z m 2.382,3.477 c -0.37,0.258 -0.976,0.017 -1.35,-0.52 -0.37,-0.538 -0.37,-1.183 0.01,-1.44 0.373,-0.258 0.97,-0.025 1.35,0.507 0.368,0.545 0.368,1.19 -0.01,1.452 z m 3.261,3.361 c -0.33,0.365 -1.036,0.267 -1.552,-0.23 -0.527,-0.487 -0.674,-1.18 -0.343,-1.544 0.336,-0.366 1.045,-0.264 1.564,0.23 0.527,0.486 0.686,1.18 0.333,1.543 z m 4.5,1.951 c -0.147,0.473 -0.825,0.688 -1.51,0.486 -0.683,-0.207 -1.13,-0.76 -0.99,-1.238 0.14,-0.477 0.823,-0.7 1.512,-0.485 0.683,0.206 1.13,0.756 0.988,1.237 z m 4.943,0.361 c 0.017,0.498 -0.563,0.91 -1.28,0.92 -0.723,0.017 -1.308,-0.387 -1.315,-0.877 0,-0.503 0.568,-0.91 1.29,-0.924 0.717,-0.013 1.306,0.387 1.306,0.88 z m 4.598,-0.782 c 0.086,0.485 -0.413,0.984 -1.126,1.117 -0.7,0.13 -1.35,-0.172 -1.44,-0.653 -0.086,-0.498 0.422,-0.997 1.122,-1.126 0.714,-0.123 1.354,0.17 1.444,0.663 z m 0,0"
         id="path2-2" /></g><g
       id="g3"
       transform="matrix(0.65185599,0,0,0.65185599,62.449847,182.40701)"><path
         d="M 46.09,0.002 H 86.775 L 44.541,125.137 a 6.485,6.485 0 0 1 -6.146,4.413 H 6.733 A 6.482,6.482 0 0 1 1.471,126.851 6.474,6.474 0 0 1 0.595,121.003 L 39.944,4.414 A 6.488,6.488 0 0 1 46.09,0 Z"
         fill="url(#azure-original-a)"
         transform="matrix(0.91904,0,0,0.91904,0.587,4.468)"
         id="path9"
         style="fill:url(#azure-original-a-2)" /><path
         d="M 97.28,81.607 H 37.987 a 2.743,2.743 0 0 0 -1.874,4.751 l 38.1,35.562 a 5.991,5.991 0 0 0 4.087,1.61 h 33.574 z"
         fill="#0078d4"
         id="path10" /><path
         d="M 46.09,0.002 A 6.434,6.434 0 0 0 39.93,4.5 L 0.644,120.897 a 6.469,6.469 0 0 0 6.106,8.653 h 32.48 a 6.942,6.942 0 0 0 5.328,-4.531 l 7.834,-23.089 27.985,26.101 a 6.618,6.618 0 0 0 4.165,1.519 h 36.396 L 104.975,83.934 58.442,83.945 86.922,0.002 Z"
         fill="url(#azure-original-b)"
         transform="matrix(0.91904,0,0,0.91904,0.587,4.468)"
         id="path11"
         style="fill:url(#azure-original-b-9)" /><path
         d="M 98.055,4.408 A 6.476,6.476 0 0 0 91.917,0.002 H 46.575 a 6.478,6.478 0 0 1 6.137,4.406 l 39.35,116.594 a 6.476,6.476 0 0 1 -6.137,8.55 h 45.344 a 6.48,6.48 0 0 0 6.136,-8.55 z"
         fill="url(#azure-original-c)"
         transform="matrix(0.91904,0,0,0.91904,0.587,4.468)"
         id="path12"
         style="fill:url(#azure-original-c-6)" /></g><g
       style="clip-rule:evenodd;fill-rule:evenodd;image-rendering:optimizeQuality;shape-rendering:geometricPrecision;text-rendering:geometricPrecision"
       id="g4"
       transform="matrix(0.05707593,0,0,0.05707593,88.96074,134.79324)"><path
         fill-rule="nonzero"
         fill="#9EA700"
         d="M 12.08,70.78 C -4.09,54.54 -4.01,28.24 12.23,12.08 28.48,-4.09 54.77,-4.01 70.94,12.23 L 256,197.76 441.06,12.23 c 16.17,-16.24 42.46,-16.32 58.71,-0.15 16.24,16.16 16.32,42.46 0.15,58.7 L 285.27,285.96 c -16.24,16.17 -42.54,16.09 -58.7,-0.15 z"
         id="path1-9" /></g></g></svg>
